<?xml version="1.0" encoding="utf-8"?>
<!-- Generator: Adobe Illustrator 28.0.0, SVG Export Plug-In . SVG Version: 6.00 Build 0)  -->
<svg version="1.1" id="Camada_1" xmlns:svg="http://www.w3.org/2000/svg"
	 xmlns="http://www.w3.org/2000/svg" xmlns:xlink="http://www.w3.org/1999/xlink" x="0px" y="0px" viewBox="0 0 128 128"
	 style="enable-background:new 0 0 128 128;" xml:space="preserve">
<style type="text/css">
	.st0{fill:#FFFFFF;}
</style>
<g>
	<path id="svg_1" class="st0" d="M116,3H12c-4.9-0.1-8.9,3.9-9,8.8v104.4c0.1,4.9,4.1,8.8,9,8.8h104c4.9,0,8.9-3.9,9-8.8V11.8
		C124.9,6.9,120.9,3,116,3z M39.2,107H21.1V48.7h18.1V107z M30.2,40.8c-5.8,0-10.5-4.7-10.5-10.5c0-5.8,4.7-10.5,10.5-10.5
		s10.5,4.7,10.5,10.5c0,0,0,0,0,0C40.6,36.1,35.9,40.8,30.2,40.8C30.1,40.8,30.1,40.8,30.2,40.8C30.1,40.8,30.2,40.8,30.2,40.8z
		 M107,107H88.9V78.7c0-6.8-0.1-15.4-9.4-15.4s-10.9,7.4-10.9,15V107H50.5V48.7h17.4v8h0.2c2.4-4.6,8.3-9.4,17.1-9.4
		c18.3,0,21.7,12,21.7,27.7L107,107L107,107z"/>
</g>
</svg>
